# xmcd CD database file
#
# Track frame offsets:
#	150
#	39013
#	69895
#	110869
#	149860
#	174909
#	244564
#
# Disc length: 3633 seconds
#
# Revision: 0
# Processed by: cddbd v1.5.1PL0 Copyright (c) Steve Scherf et al.
# Submitted via: CDex 1.51
#
DISCID=5a0e2f07
DTITLE=John Abercrombie - Live in Reim [CD1]
DYEAR=1987
DGENRE=Jazz
TTITLE0=I Fall In Love Too Easily
TTITLE1=Samurai Hee Haw
TTITLE2=Ralph's Piano Waltz
TTITLE3=?
TTITLE4=?
TTITLE5=?
TTITLE6=?
EXTD=YEAR: 1987
EXTT0=
EXTT1=
EXTT2=
EXTT3=
EXTT4=
EXTT5=
EXTT6=
PLAYORDER=
